<?xml version="1.0" standalone="no"?>
<!DOCTYPE svg PUBLIC "-//W3C//DTD SVG 20010904//EN" "http://www.w3.org/TR/2001/REC-SVG-20010904/DTD/svg10.dtd">
<!-- Created using Krita: http://krita.org -->
<svg xmlns="http://www.w3.org/2000/svg" 
    xmlns:xlink="http://www.w3.org/1999/xlink"
    xmlns:krita="http://krita.org/namespaces/svg/krita"
    xmlns:sodipodi="http://sodipodi.sourceforge.net/DTD/sodipodi-0.dtd"
    width="432pt"
    height="432pt"
    viewBox="0 0 432 432">
<defs/>
<path id="shape0" transform="matrix(3.25240311184545 0 0 3.2351769324614 101.766471264542 147.674302616854)" fill="#3b9521" fill-rule="evenodd" stroke="#000000" stroke-opacity="0" stroke-width="0" stroke-linecap="square" stroke-linejoin="bevel" d="M1.17224 15.5962L4.11213 14.0357L8.17773 6.75213L12.3317 1.40315L15.9415 0.79937L21.0351 3.93307L25.4356 9.39685L28.4174 9.03118L32.6319 7.72157L37.7581 8.12551L44.2612 1.28835L47.7593 0L52.5924 1.16929L56.1463 7.03276L61.1935 13.1896L63.51 15.4517L61.2167 17.7605L56.2812 19.6781L42.9587 20.6603L35.1996 20.6603L20.7514 22.1613L8.87084 22.2038L2.35377 21.0557L0 18.8235L0 15.8683C0.111641 15.772 0.502386 15.6813 1.17224 15.5962Z"/><path id="shape1" transform="matrix(3.25240311184545 0 0 3.2351769324614 83.0098163697837 176.75421272302)" fill="#664e26" fill-rule="evenodd" stroke="#000000" stroke-opacity="0" stroke-width="0" stroke-linecap="square" stroke-linejoin="bevel" d="M10.3364 2.87858L4.0566 3.49087L0 6.32693L0 11.8205L2.40989 16.3913L17.4861 20.2096L41.0239 21.2981L64.6453 18.9595L76.9957 12.42L79.8844 7.84063L77.9725 3.0189L73.1254 0.684567L64.3244 0L64.8128 2.03244L69.0273 6.48425L65.6687 9.11197L61.0821 10.7235L51.0809 11.4591L40.8331 11.8928L26.4547 13.3129L11.9552 13.1386L8.01056 12.0246L5.23813 9.07795L5.94055 6.53528L8.89439 5.76992C8.98122 5.67921 9.4619 4.71543 10.3364 2.87858Z"/><path id="shape21" transform="matrix(3.25240311184545 0 0 3.2351769324614 44.1733071717205 333.418384214566)" fill="#036c7a" fill-rule="evenodd" stroke="#000000" stroke-opacity="0" stroke-width="0" stroke-linecap="square" stroke-linejoin="bevel" d="M0 5.11086C7.37425 7.55246 13.0491 9.06988 21.5415 10.2337C27.2031 11.0095 33.3215 11.478 39.8969 11.6391L62.8764 12.8381L83.705 10.7023C88.2702 8.87431 93.3881 8.60797 97.9533 6.78C102.298 5.04054 106.089 1.73946 110.433 0L106.154 6.62533L99.0632 14.091L89.9923 20.0863L82.9496 22.2803L31.4736 23.1562L18.7279 19.542L7.38694 13.0791L0 5.11086"/><path id="shape311" transform="matrix(3.25240311184545 0 0 3.2351769324614 41.581383449357 324.457209640435)" fill="#074151" fill-rule="evenodd" stroke="#000000" stroke-opacity="0" stroke-width="0" stroke-linecap="square" stroke-linejoin="bevel" d="M0.944509 7.73241L11.1157 10.649L25.7953 13.2795L19.8131 0L10.6915 0.169706L2.885 1.65463L0 4.53962C0 4.53962 0.314836 5.60389 0.944509 7.73241Z"/><path id="shape4111" transform="matrix(3.25240311184545 0 0 3.2351769324614 315.349141719648 317.182585430725)" fill="#074151" fill-rule="evenodd" stroke="#000000" stroke-opacity="0" stroke-width="0" stroke-linecap="square" stroke-linejoin="bevel" d="M3.90323 0L0 15.5281L11.2854 12.3885L24.2679 7.21249L27.8317 3.81838L24.0133 1.6122C24.0133 1.6122 17.31 1.0748 3.90323 0Z"/><path id="shape51111" transform="matrix(3.25240311184545 0 0 3.2351769324614 82.7636824423334 211.249537039357)" fill="#036c7a" fill-rule="evenodd" stroke="#000000" stroke-opacity="0" stroke-width="0" stroke-linecap="square" stroke-linejoin="bevel" d="M0 2.92535L2.70497 23.2838L2.7794 23.1307L8.32426 39.4668L12.027 47.9112L21.0328 49.9266L58.8048 51.3638L72.0157 49.646C72.7842 48.24 72.9715 44.897 73.74 43.491C74.3662 42.3454 75.5738 43.1367 76.2 41.991L75.72 35.211L77.64 21.291L80.16 8.33102L80.04 6.17102L79.7469 0.952441L78.7979 0L70.6574 6.57354L58.8048 10.6129L37.7511 11.9395L12.6876 9.76252L4.46332 7.92567C4.32067 7.81795 2.8329 6.15118 0 2.92535Z"/><path id="shape61" transform="matrix(3.25240311184545 0 0 3.2351769324614 323.078980494498 224.390748494267)" fill="#036c7a" fill-rule="evenodd" stroke="#000000" stroke-opacity="0" stroke-width="0" stroke-linecap="square" stroke-linejoin="bevel" d="M5.73093 0L5.90769 6.2674L9.46161 3.33354L14.625 3.6737L17.9371 5.58709L19.4442 11.982L17.0997 19.8057L13.4063 25.9795L7.71256 30.4101L0.831986 31.4381L0 37.5024L8.66151 34.492L15.267 28.6413L21.0165 20.9282L22.7562 14.5843L22.4585 8.58898L20.2443 3.19748L15.6484 0.246614L10.1594 0.246614C10.0911 0.167244 8.615 0.0850394 5.73093 0Z"/><path id="shape71" transform="matrix(3.25240311184545 0 0 3.2351769324614 139.721507766779 159.671426853815)" fill="#d3ffda" fill-rule="evenodd" stroke="#000000" stroke-opacity="0" stroke-width="0" stroke-linecap="square" stroke-linejoin="bevel" d="M1.67095 0.946296L0 2.3594L0.22367 6.0094L3.309 8.6071L6.18382 7.56081L7.55216 4.49408L6.34829 1.8122L4.67076 0.00222453C4.6576 -0.0298458 3.65767 0.284845 1.67095 0.946296Z"/><path id="shape81" transform="matrix(3.25240311184545 0 0 3.2351769324614 246.209624859868 159.095011357315)" fill="#d3ffda" fill-rule="evenodd" stroke="#000000" stroke-opacity="0" stroke-width="0" stroke-linecap="square" stroke-linejoin="bevel" d="M3.44057 0L0.526283 1.40709L0 5.26756L2.82219 8.30422L6.17724 7.90735L7.9074 5.78469L7.45348 2.23691L5.61149 0.342752C5.73429 0.202444 5.01065 0.0881935 3.44057 0Z"/><path id="shape011" transform="matrix(3.25090851543895 -0.0980691953876301 0.0985913793630555 3.23369025210494 117.996266635446 14.2864717235435)" fill="#4f420f" stroke="#000000" stroke-width="0.72" stroke-linecap="square" stroke-linejoin="bevel" d="M3.61815 1.03244C4.64985 -0.56883 8.39956 -0.759683 8.08022 3.789C7.86754 6.81836 5.40943 17.5365 3.79399 17.6147C3.56497 17.946 0.569691 18.0969 0.119807 16.3201C-0.625749 13.3855 2.29954 3.07903 3.61815 1.03244Z"/><path id="shape0111" transform="matrix(-3.18760666419939 0.642558135944329 -0.645979532036582 -3.17072367573978 317.887188258245 92.80206540496)" fill="#4f420f" stroke="#000000" stroke-width="0.6" stroke-linecap="square" stroke-linejoin="bevel" d="M2.75596 0.945447C3.54181 -0.520901 6.39799 -0.695672 6.15474 3.46974C5.99274 6.24385 4.13115 16.0194 2.90065 16.091C2.9391 16.2856 0.433937 16.5721 0.0912576 14.945C-0.476636 12.2576 1.75157 2.81959 2.75596 0.945447Z"/><path id="shape11" transform="matrix(3.25240311184545 0 0 3.2351769324614 225.615391812989 99.5595988120874)" fill="#43521e" stroke="#000000" stroke-width="0.72" stroke-linecap="square" stroke-linejoin="bevel" d="M8.80378 14.6527C8.09905 12.0521 8.28234 13.0577 7.83061 10.3986C7.4563 8.1953 6.93412 3.6864 6.77008 3.95074C5.11629 6.61574 3.17044 8.59242 1.07294 10.9196C0.21903 11.8328 -0.431032 11.1441 0.351354 10.2273C2.49499 7.9522 3.41672 5.58502 5.0185 2.94304C5.33704 2.41765 7.82921 -1.95775 8.37738 1.04295C8.43861 1.37808 8.49339 1.71435 8.55012 2.05027C8.62716 2.50647 8.69996 2.96337 8.77366 3.42012C8.91884 4.31976 9.0507 5.16261 9.19282 6.06237C9.4379 7.61401 9.52284 8.15877 9.82218 9.96167C10.2595 12.5958 10.0889 11.565 10.7836 14.1403C10.9927 15.5687 9.10322 15.8355 8.80378 14.6527Z"/><path id="shape021" transform="matrix(4.04082694698635 0.158562442675014 -0.169699522814214 4.68107525990639 168.139139859086 171.099329882252)" fill="#000000" stroke="#000000" stroke-width="0.48" stroke-linecap="round" stroke-linejoin="round" d="M1.55136e-05 4.50592C-0.0100298 4.48465 4.86142 1.69048 5.58002 1.31842C7.78703 0.175713 8.25741 0.144567 8.63752 0.094973C9.54366 -0.0232518 10.4717 -0.0239444 11.7491 0.0534858C13.1585 0.138915 14.2404 -0.00870524 14.205 0.0434192C14.0699 0.242152 14.0135 0.79937 14.0692 0.851717C14.1728 0.949143 13.6491 0.601629 11.04 0.485919C10.5392 0.46371 8.80582 0.602618 8.18252 0.808419C6.95793 1.21275 5.68786 1.73511 3.98123 2.67238C3.63674 2.86157 0.0223927 4.55328 1.55136e-05 4.50592Z"/><path id="shape112" transform="matrix(1.4394513446474 0.0564842108592021 -0.0599458998505738 1.65357724093637 101.102607192044 176.825783556922)" fill="#000000" stroke="#000000" stroke-width="1" stroke-linecap="square" stroke-linejoin="bevel" d="M1.97577 14.4944C1.60726 16.3383 1.94043 18.0633 2.97529 19.6696C3.27254 20.6828 4.55948 21.6728 6.83609 22.6394C12.3587 24.9844 17.7626 24.3344 23.8915 24.5698C25.9961 24.6507 27.8272 24.4322 29.9161 24.5062C32.4605 24.5963 35.1379 24.1304 37.6801 24.0395C40.9274 23.9235 44.1392 23.7334 47.3679 23.6255C50.1165 23.5336 52.8788 22.8111 55.6265 22.8516C59.7648 22.9125 70.6413 20.8896 71.7909 20.7727C76.0373 20.341 79.9217 19.9755 84.1794 19.4999C89.898 18.8611 94.2249 18.9395 100.301 18.6938C104.93 18.5066 110.328 18.0534 114.948 17.6063C116.93 17.4145 118.937 17.4354 120.9 17.1046C125.631 16.3077 129.947 15.6036 134.456 13.6844C136.531 12.8012 139.979 11.3167 141.752 10.0176C143.743 8.55857 144.008 7.3372 145.256 7.0844C148.435 6.44022 145.834 2.45761 144.446 1.7144C141.804 0.300311 137.081 0.00995436 136.496 0.694403C136.278 0.949684 133.45 0.744993 133.543 0.641353C134.262 -0.165228 138.179 -0.11826 140.366 0.274403C140.891 0.368778 144.111 0.501167 146.122 2.06264C147.588 3.20124 150.512 4.69201 147.626 7.83441C143.221 11.9898 136.192 15.2089 130.766 16.88C124.676 18.7559 117.99 18.4683 111.716 19.3244C107.285 19.929 103.564 20.1296 99.1158 20.5244C94.1303 20.9669 89.129 21.1138 84.1158 21.4844C79.7716 21.8056 75.8354 22.5974 71.5158 23.0444C70.3814 23.1618 59.8631 24.512 55.3158 24.8444C52.408 25.057 49.7684 25.6996 46.8442 25.6093C41.3896 25.4408 35.8343 26.0713 30.3403 26.3305C27.8378 26.4486 25.5689 26.1527 23.043 26.2457C17.6797 26.4431 13.3536 26.0678 8.06646 24.5486C4.47161 23.5157 2.23485 22.3959 0.460768 19.0394C0.260134 18.6598 -0.0631141 16.5974 0.0107717 16.1744C0.293105 14.5582 0.429439 14.67 1.06077 13.1594C1.24223 12.7252 3.04284 11.0657 3.59577 11.2094C3.88743 11.2852 2.29638 13.2328 1.97577 14.4944Z"/><path id="shape52" transform="matrix(1.00852068182751 1.1728527437687 -1.028834155169 1.16701525236534 329.720693684226 188.498600245593)" fill="#000000" stroke="#000000" stroke-width="1" stroke-linecap="square" stroke-linejoin="bevel" d="M0.0310126 0.995629C-0.0395121 0.976058 0.00900761 0.351408 0.189283 0.25296C0.67292 -0.0111526 1.23473 0.171233 1.76808 0.0976504C3.27211 -0.109849 4.99389 -0.0450183 6.27312 0.87298C6.88323 1.3108 9.56434 4.31751 9.80283 6.57879C10.0589 9.00728 10.128 8.66329 9.45108 10.5159C9.29747 10.9362 9.20558 11.3436 8.8026 11.6226C8.24444 12.0091 7.81263 11.9938 7.74537 11.9208C7.67142 11.8404 8.23738 8.47907 7.92361 6.82803C7.62765 5.27073 6.01789 3.36406 5.90615 3.17926C5.62173 2.70884 5.10872 2.38619 4.69649 2.03882C3.79876 1.28237 2.45517 1.20354 1.33537 1.24117C0.769638 1.26018 0.360203 1.08698 0.0310126 0.995629Z"/><path id="shape6111" transform="matrix(1.4394513446474 0.0564842108592021 -0.0599458998505738 1.65357724093637 89.6069649471846 175.654102657478)" fill="#000000" stroke="#000000" stroke-width="1" stroke-linecap="square" stroke-linejoin="bevel" d="M9.22283 10.6577C8.55017 10.7428 8.11011 10.903 7.51589 11.2213C5.69406 12.1974 3.05231 13.7398 2.24003 15.8596C0.308705 20.8996 3.68087 25.2025 8.37503 26.7796C11.2194 27.7352 14.1432 29.1143 17.1364 29.6063C24.4334 30.8058 31.7524 29.8344 39.2063 29.9882C46.3867 30.1363 56.2761 28.9506 63.425 28.6546C69.9767 28.3832 76.4225 26.4297 82.9462 25.6757C87.0942 25.1963 91.5604 25.4845 95.7413 25.3763C102.414 25.2036 108.825 26.6647 115.396 27.4637C121.215 28.1713 127.298 27.4211 133.145 27.5746C141.522 27.7945 150.179 22.1246 151.535 21.3046C157.478 17.7117 162.057 13.0249 163.234 9.65104C163.527 8.81224 163.857 7.03499 162.965 5.80957C161.589 1.61866 155.692 0.246783 157.468 0.114645C157.354 -0.396619 160.976 0.888514 162.516 2.25884C164.304 3.84613 166.258 6.43428 164.48 10.8796C163.586 13.1151 159.408 17.827 158.225 19.0246C154.781 22.5113 144.827 27.0334 142.175 28.2946C138.446 30.0684 133.081 29.8882 128.892 29.9827C124.4 30.084 119.135 30.4031 114.665 29.8546C108.18 29.0589 102.053 27.7653 95.465 27.9346C91.3265 28.0409 87.4513 27.9334 83.345 28.4146C76.8352 29.1774 70.0804 30.6456 63.545 30.9346C56.335 31.2534 46.5025 32.4617 39.26 32.2996C31.7031 32.1304 24.2354 32.6486 16.82 31.4596C13.6862 30.9571 10.0653 29.1954 7.02503 28.3546C1.12101 26.7218 -1.44747 20.6885 0.815027 15.1096C1.81438 12.6453 5.5269 10.83 7.94397 9.87718C8.4819 9.66512 10.4678 9.66745 10.985 9.91957C11.2082 10.0283 9.49096 10.6238 9.22283 10.6577Z"/><path id="shape711" transform="matrix(1.4394513446474 0.0564842108592021 -0.0599458998505738 1.65357724093637 82.0549934656021 167.833365799032)" fill="#000000" stroke="#000000" stroke-width="1" stroke-linecap="square" stroke-linejoin="bevel" d="M156.686 0.0634799C163.975 0.669753 172.095 1.01729 178.136 5.82348C180.821 7.9597 184.922 12.3288 183.416 16.8035C181.89 21.3349 176.259 24.5301 172.676 27.4235C160.32 37.4005 142.208 41.0795 138.236 41.7035C131.169 42.8134 101.947 45.4978 94.6757 46.1435C87.9198 46.7433 69.2586 46.8117 66.5799 46.8777C62.0587 46.9891 57.5957 46.6043 53.0909 46.3954C46.6083 46.0947 40.2994 45.5225 33.8488 44.7874C30.7584 44.4353 27.0955 43.8418 23.9957 43.5035C21.7888 43.2626 14.4838 41.4977 12.1157 40.7435C9.89277 40.0355 7.42265 38.4984 5.51567 37.1435C3.46193 35.6843 1.25316 31.2002 0.566509 28.7974C-0.271981 25.8632 -0.135601 23.1836 0.685601 20.2318C0.954379 19.2657 2.43881 16.9863 3.05088 16.1634C3.92112 14.9934 7.04426 12.5951 8.2614 12.0764C10.0857 11.2988 18.5915 10.1006 21.5064 10.054C23.0092 10.0299 27.5935 9.65523 26.5127 10.1813C26.3836 10.2441 25.5656 12.16 25.2399 12.1329C23.4164 11.9809 20.4177 12.3306 19.844 12.3573C14.1269 12.6243 11.3371 13.5061 9.28756 14.1269C6.20866 15.0596 4.48721 17.8423 3.73986 18.7369C2.57867 20.1269 2.33298 23.76 2.42815 25.4356C2.71909 30.5582 7.79757 35.2963 12.3905 36.7196C13.6473 37.109 15.6781 38.4757 24.4338 39.8373C28.4061 40.455 32.8096 41.0423 36.8057 41.4035C46.226 42.2548 56.2586 43.1155 65.8668 42.8883C67.7003 42.8449 82.9273 43.3184 88.6179 42.937C97.0706 42.3706 129.323 39.3863 136.957 38.1966C140.905 37.5812 149.289 36.6846 159.116 31.3835C162.632 29.4867 170.373 24.4423 172.856 22.3835C173.451 21.8894 180.755 17.6064 179.816 13.6235C179.696 13.1179 179.613 8.9019 172.387 5.33898C168.653 3.49795 164.52 2.97407 160.316 2.52348C159.466 2.43247 155.884 2.63144 152.726 2.76348C150.308 2.86453 147.955 3.24813 146.996 3.15348C146.773 2.78036 143.302 0.961918 144.575 0.52926C146.288 -0.052889 155.214 -0.0589459 156.686 0.0634799Z"/><path id="shape811" transform="matrix(1.4394513446474 0.0564842108592021 -0.0599458998505738 1.65357724093637 178.873972544692 231.811198793732)" fill="#000000" stroke="#000000" stroke-width="1" stroke-linecap="square" stroke-linejoin="bevel" d="M10.0257 2.85962C11.9051 2.62283 14.2085 1.5986 16.0267 1.07979C18.4294 0.39421 21.7599 0.0602999 24.222 0.00604207C28.0575 -0.0784846 31.6924 0.752039 35.4815 0.738305C36.9911 0.732833 38.728 0.427985 40.2333 0.356467C41.4039 0.300849 45.0888 0.213636 45.8212 0.614668C45.9734 0.697981 47.3793 1.07953 47.4487 1.51467C44.4175 1.91107 44.7983 0.531361 35.3361 2.52021C31.3645 2.51317 27.889 2.18174 23.8736 2.4966C21.6108 2.67403 18.7512 2.52874 16.5492 3.05205C14.9428 3.4338 12.0746 3.86149 10.4024 3.96263C7.2176 4.15282 -0.356047 3.12039 0.0130209 2.85961C0.382089 2.59884 2.87665 2.73366 4.6375 2.71112C5.15771 2.72063 6.28882 2.84326 7.07702 2.90204C8.30275 2.99345 9.61119 2.91892 10.0257 2.85962Z"/><path id="shape91" transform="matrix(1.436759126704 0.109941076916075 -0.106474862521154 1.65088494978471 80.7189388276062 206.450999681915)" fill="#000000" stroke="#000000" stroke-width="1" stroke-linecap="square" stroke-linejoin="bevel" d="M0.174894 0.00714187C0.203059 0.132061 2.07096 4.67542 2.45694 6.93516C2.58907 7.70872 4.78965 16.0258 5.20257 17.3643C5.77958 19.2346 6.14144 21.1574 6.69442 23.0353C7.22339 24.8316 7.75734 26.6375 8.30137 28.4312C9.10195 31.0707 11.8738 40.6705 12.758 43.281C14.9247 49.6783 18.6749 59.3905 19.5227 60.9026C22.2416 65.7525 24.7843 70.7171 27.4713 75.5802C28.3779 77.2212 34.8182 87.3165 36.9903 90.8821C38.7824 93.8237 39.4251 94.6778 39.1907 94.9437C38.8056 95.3804 36.4159 95.6416 35.0787 93.8033C33.6688 91.8652 33.3341 91.5261 32.0688 89.4828C30.5591 87.0448 26.461 79.8732 25.533 78.166C19.2807 66.6635 12.8369 54.5483 8.87481 41.9905C5.90109 32.5654 4.27481 22.4718 1.18234 13.1018C0.38278 10.6791 0.968966 11.4836 9.85186e-05 6.08295C-0.00399332 5.72681 0.120441 -0.234361 0.174894 0.00714187Z"/><path id="shape101" transform="matrix(1.4394513446474 0.0564842108592021 -0.0599458998505738 1.65357724093637 319.918451509055 201.102574220498)" fill="#000000" stroke="#000000" stroke-width="1" stroke-linecap="square" stroke-linejoin="bevel" d="M17.3998 0.815473C17.3768 1.31106 17.4563 2.55009 17.405 3.04621C17.2285 4.75409 16.9015 10.8552 16.9701 12.5816C17.0285 14.0512 18.7463 14.0972 19.4733 13.8968C28.1283 11.5105 35.5694 12.3413 38.1409 12.9634C43.0335 14.1469 45.1485 15.1707 49.0847 18.1434C53.2031 21.2537 56.423 29.1912 57.0631 34.6857C57.4537 38.0391 57.2609 41.9028 56.4148 45.2605C54.9277 51.1619 49.4142 61.1162 43.6348 67.5205C39.6253 71.9636 36.3709 75.7433 31.2395 78.9616C26.8969 81.685 22.8493 84.3592 18.0503 86.1435C16.3278 86.7839 14.226 87.2733 12.4729 87.8036C10.9042 88.2781 8.78548 88.8766 7.4666 89.8825C4.49935 92.1456 4.23102 98.2732 2.92697 101.422C2.40882 102.674 -0.0740139 102.973 0.00169516 101.856C0.0589734 101.012 0.935258 97.1725 1.18749 96.3737C2.14373 93.3456 2.86045 88.9764 5.51048 86.9508C7.38178 85.5205 9.83658 85.4282 12.0157 84.7713C15.1535 83.8255 19.2434 82.5235 22.0461 80.7404C25.0257 78.8447 28.3675 77.2474 31.098 75.0252C35.1807 71.7025 38.9217 68.265 42.3148 64.2805C47.9206 57.6977 52.3838 51.0265 53.6548 42.1405C53.9843 39.8368 55.7159 30.1057 48.2384 21.5335C44.1638 16.8625 39.6247 15.9 36.2317 15.212C33.141 14.5852 29.9173 14.4405 24.4948 15.6205C22.474 16.0602 19.4624 16.9928 17.4448 17.0305C16.451 17.049 14.2015 16.1244 13.7248 14.1205C13.2269 12.027 13.8231 4.7693 14.5443 2.72841C14.7842 2.04957 14.7702 0.613194 15.3791 0.203645C16.2087 -0.354284 17.3979 0.362963 17.3998 0.815473Z"/><path id="shape1121" transform="matrix(1.4394513446474 0.0564842108592021 -0.0599458998505738 1.65357724093637 329.822928374891 232.069448562669)" fill="#000000" stroke="#000000" stroke-width="1" stroke-linecap="square" stroke-linejoin="bevel" d="M0.525505 59.2732C-0.438604 56.5455 0.204758 52.4985 0.277135 51.8891C3.37436 25.8098 5.45126 19.2665 5.91984 17.5661C6.92164 13.9308 7.7384 9.36577 9.65336 6.11095C13.6065 -0.608203 21.4864 0.0419995 25.436 0.00155022C28.3972 -0.0287771 32.8634 0.417749 34.9395 2.12287C36.7368 3.59901 41.3112 5.12764 41.6989 16.5192C42.0428 26.6236 37.4145 36.965 30.2645 45.3304C27.1343 48.9927 22.1644 52.2744 18.0237 54.556C16.1785 55.5727 6.02881 59.517 4.08049 60.0082C3.45351 60.1663 1.92061 60.6806 0.526847 59.6096C0.247166 59.3947 0.585742 57.0318 0.637748 56.906C0.700826 56.7534 2.41282 55.3583 2.62118 55.9196C2.90009 56.6708 5.42398 55.9731 4.99 56.1864C4.66241 56.3474 6.70884 55.6082 7.1758 55.4672C8.73271 54.9973 10.7046 54.416 12.1989 53.7982C17.6963 51.5257 23.755 48.4642 27.727 43.8705C28.4027 43.089 34.3987 35.9966 36.7214 26.7832C40.0589 18.2574 38.0991 10.6627 37.1457 9.08081C36.1922 7.49886 34.9448 4.43759 29.5938 3.39567C24.5245 2.40861 15.8575 2.50166 12.3686 7.21404C4.99377 22.0384 3.06813 55.1521 2.84392 56.1211C2.81283 56.2555 0.642746 59.6049 0.525505 59.2732Z"/><path id="shape121" transform="matrix(1.4394513446474 0.0564842108592021 -0.0599458998505738 1.65357724093637 41.5895760748588 305.864329792538)" fill="#000000" stroke="#000000" stroke-width="1" stroke-linecap="square" stroke-linejoin="bevel" d="M231.56 0.297376C233.916 1.01554 235.151 0.672207 236.856 0.944553C240.445 1.51773 247.438 1.92994 250.485 2.93313C258.305 5.41011 253.963 7.83933 250.681 10.6662C244.906 13.2569 218.369 33.3722 162.361 37.3062C158.151 37.6019 106.575 40.5947 44.5695 35.6679C10.338 32.948 5.59484 27.0623 3.89738 26.1425C-6.10495 20.7222 6.18122 14.3332 7.2121 13.8698C17.0756 9.43553 38.4475 9.78101 41.3138 9.59861C42.1306 9.54661 44.7854 9.25781 45.7036 9.62661C46.1122 9.77361 47.2417 10.6921 46.3336 11.2466C45.3204 11.415 29.0699 11.7053 18.4975 12.9364C7.21683 14.25 -2.5539 19.7093 7.15834 25.5246C9.88923 27.1597 24.2133 29.9173 28.2935 30.7235C33.7489 31.8013 39.5806 32.8688 45.1209 33.1662C141.041 38.315 172.358 33.3924 196.321 29.6862C198.934 29.2821 236.936 17.8885 250.267 7.5597C255.177 3.7562 237.435 2.79234 229.676 2.1193M228.074 2.00521M217.006 2.09303C216.633 2.09514 216.051 2.09937 215.595 2.10527C211.285 2.1611 212.457 1.62676 210.689 1.61791C209.674 1.61284 203.242 2.43655 201.015 1.9149C199.667 1.59898 200.694 0.224341 201.227 0.196627C209.639 -0.239937 212.369 0.18987 218.326 0.168399"/><path id="shape131" transform="matrix(1.4394513446474 0.0564842108592021 -0.0599458998505738 1.65357724093637 341.06793760543 328.625768348628)" fill="#000000" stroke="#000000" stroke-width="1" stroke-linecap="square" stroke-linejoin="bevel" d="M0.038521 41.7711C0.327365 41.6391 -0.00681023 41.7417 0.0980746 42.1295C0.133521 42.2606 0.496624 42.4917 0.378166 42.4253C0.319836 42.3926 -0.0310806 42.2012 0.00222362 42.0584C0.169803 41.3396 1.54774 40.4121 1.91869 40.0897C4.53449 37.8166 7.66889 36.5056 10.5914 34.7171C16.5851 31.049 22.4089 26.5282 27.556 21.6881C30.5984 18.8271 33.0532 15.3941 35.7355 12.2127C37.757 9.81493 39.7768 7.34837 41.6638 4.84933C42.0089 4.39239 43.3167 2.88639 43.3743 2.28692L45.6334 0C45.36 2.19093 42.5362 5.84891 41.1433 7.42023C39.5782 9.18588 38.2237 11.1909 36.7076 13.0102C34.084 16.1587 31.5694 19.3617 28.6992 22.3019C23.1139 28.0235 15.8651 33.1612 9.03509 37.0093C7.13417 38.0804 5.28847 39.0508 3.47852 40.2933C2.85842 40.719 1.58041 42.3087 0.84416 42.3195C0.676843 42.322 1.01507 41.9984 0.977045 41.8354C0.942869 41.689 0.552407 41.4539 0.700725 41.4788C1.25736 41.5721 1.0992 42.3432 0.688751 42.5308Z"/><path id="shape141" transform="matrix(1.4394513446474 0.0564842108592021 -0.0599458998505738 1.65357724093637 40.2752452253447 341.079564187337)" fill="#000000" stroke="#000000" stroke-width="1" stroke-linecap="square" stroke-linejoin="bevel" d="M1.26877 0C2.04107 2.37764 4.15538 4.13186 5.79968 5.946C7.72698 8.07234 24.6853 28.6389 66.0664 35.602C67.4306 35.8776 67.9968 36.0551 70.0757 36.3657L69.8635 37.5112C69.912 37.5657 67.0288 36.8885 63.139 36.2384C18.1523 29.5049 -0.770232 1.54493 0.0239398 0.654589C0.846217 0.26462 0.955608 0.114201 1.26877 0Z"/><path id="shape151" transform="matrix(1.4394513446474 0.0564842108592021 -0.0599458998505738 1.65357724093637 139.255737177291 386.65821634353)" fill="#000000" stroke="#000000" stroke-width="1" stroke-linecap="square" stroke-linejoin="bevel" d="M18.3238 11.8882C45.659 11.9877 70.1889 9.78867 98.0855 8.12464C117.457 6.75521 131.373 3.29442 131.942 3.03349C132.918 2.58558 140.944 0.154375 141.424 0C140.595 1.03746 140.385 3.1121 140.051 3.27743C139.757 3.5158 132.496 6.62215 122.009 8.45345C102.682 10.7882 71.4648 12.2965 46.495 13.7249C23.7015 14.0451 5.67837 14.5282 5.03102 14.4127C3.52474 13.4876 1.13987 12.7626 0.516022 12.2377C-0.0580277 11.7548 -0.271425 11.5558 0.501022 11.1877C6.5468 12.3468 8.27887 12.351 18.3238 11.8882Z"/><path id="shape161" transform="matrix(1.4394513446474 0.0564842108592021 -0.0599458998505738 1.65357724093637 139.855371731301 159.738591029963)" fill="#000000" stroke="#000000" stroke-width="1" stroke-linecap="square" stroke-linejoin="bevel" d="M11.3418 0.441512C13.9599 1.43558 15.6228 3.45703 16.6101 6.15611C18.7488 12.0024 14.9832 16.994 9.02647 17.0601C6.893 17.0837 4.27844 16.3366 2.88609 14.6981C0.864668 12.3194 -0.574647 9.44391 0.224455 6.21203C0.978186 3.16365 3.58734 0.7183 6.56915 0.0779601C7.44306 -0.109712 10.3188 0.0530734 11.3418 0.441512ZM7.27575 0.956636C4.41611 1.39793 3.30057 2.74434 1.93144 4.97839C-1.1822 10.059 3.72589 15.9357 9.05251 16.0461C14.814 16.1656 17.5742 10.662 15.2303 5.66749C12.4184 0.166871 7.85143 0.867798 7.27575 0.956636Z"/><path id="shape171" transform="matrix(1.4394513446474 0.0564842108592021 -0.0599458998505738 1.65357724093637 138.08384064091 158.841994209259)" fill="#000000" stroke="#000000" stroke-width="1" stroke-linecap="square" stroke-linejoin="bevel" d="M19.0113 7.01098C20.0752 9.47476 20.3259 11.7075 20.3265 12.7385C20.3275 14.2419 19.1574 13.4461 18.9477 12.5052C16.2299 2.07273 14.2961 1.76692 11.1924 0.935224C10.3444 0.934253 8.76162 0.952874 7.92561 1.08371C2.04591 3.4078 3.58618 4.17039 0.237645 6.12003C-0.90418 5.51253 2.40469 3.00976 3.05334 2.35097C9.7837 -1.92293 15.103 -0.36959 19.0113 7.01098Z"/><path id="shape181" transform="matrix(1.41278409555353 0.311985752095688 -0.282231791028476 1.62486093199031 145.272257280906 167.163102618143)" fill="#000000" stroke="#000000" stroke-width="1" stroke-linecap="square" stroke-linejoin="bevel" d="M1.57968 0.000747038C3.97323 0.0788344 4.59325 6.15189 2.19969 6.67896C-0.222408 6.68656 -0.947277 -0.0816925 1.57968 0.000747038Z"/><path id="shape19" transform="matrix(1.4394513446474 0.0564842108592021 -0.0599458998505738 1.65357724093637 245.307755123408 157.386507827584)" fill="#000000" stroke="#000000" stroke-width="1" stroke-linecap="square" stroke-linejoin="bevel" d="M6.35383 1.83329C6.5454 2.22759 5.29571 3.07543 4.95883 3.22829C1.75367 4.68263 1.41078 9.62914 2.64138 12.2246C4.93841 17.0694 13.4622 19.3785 16.9719 14.4332C19.5536 10.7956 17.7912 5.19064 14.0191 3.14229C11.6811 1.87277 8.61003 1.78809 6.11011 2.64215C4.92481 3.04708 3.29638 2.81762 0.200481 5.7639C0.118591 5.84183 -0.194065 4.8826 0.179259 4.26836C0.524315 3.70064 2.82337 2.06516 3.49633 1.60079C6.35942 -0.374837 11.0828 -0.419437 14.074 0.906754C19.1254 3.14636 21.7068 10.1478 18.2511 14.8546C14.1076 20.4984 4.3964 18.585 1.64183 12.6556C0.254896 9.67015 0.58628 4.01564 4.24633 2.38079C4.55449 2.24314 6.16358 1.44172 6.35383 1.83329Z"/><path id="shape20" transform="matrix(1.4394513446474 0.0564842108592021 -0.0599458998505738 1.65357724093637 251.662107887309 160.892722481821)" fill="#000000" stroke="#000000" stroke-width="1" stroke-linecap="square" stroke-linejoin="bevel" d="M0 0L4 3.71282e-07"/><path id="shape211" transform="matrix(1.42631684828568 0.220950481897962 -0.203061401582257 1.63972224549409 269.247890751219 163.399855235601)" fill="#000000" stroke="#000000" stroke-width="1" stroke-linecap="square" stroke-linejoin="bevel" d="M4.34466 5.23399C4.89472 6.30348 6.09481 8.85665 5.2415 9.80782C4.93562 10.0914 4.32275 8.93841 3.84895 7.7963C3.59182 7.17649 3.51667 6.9418 3.04347 6.13943C2.34851 5.14574 1.10983 2.19044 0.266809 1.33676C-0.0913529 0.26539 -0.0889199 -0.161979 0.274108 0.0546543C0.966953 0.295926 2.3238 2.02237 4.34466 5.23399Z"/><path id="shape01111" transform="matrix(1.42636628968971 0.220550495929034 -0.202713472010052 1.63977603695375 251.351122122568 166.560613939246)" fill="#000000" stroke="#000000" stroke-width="1" stroke-linecap="square" stroke-linejoin="bevel" d="M1.37893 0.000791515C3.4683 0.0835279 4.00953 6.51815 1.92015 7.0766C-0.194143 7.08465 -0.826896 -0.0865562 1.37893 0.000791515Z"/><path id="shape22" transform="matrix(1.4394513446474 0.0564842108592021 -0.0599458998505738 1.65357724093637 152.670209202559 193.414022164718)" fill="#000000" stroke="#000000" stroke-width="1" stroke-linecap="square" stroke-linejoin="bevel" d="M8.9412 0.771908C8.37267 0.977522 7.81738 1.27589 7.50167 1.49619C4.24104 2.87576 1.83302 5.36542 0.525 6.91391C0.262998 7.12884 0.0879976 7.05884 0 6.70391C0.2025 5.89014 1.15712 4.80959 1.76508 4.30168C3.08055 2.96002 3.89578 1.99458 5.91 0.853912C6.44306 0.52852 7.80033 -0.389351 8.40991 0.18468C8.60465 0.381249 9.1217 0.542274 8.9412 0.771908Z"/><path id="shape23" transform="matrix(1.4394513446474 0.0564842108592021 -0.0599458998505738 1.65357724093637 186.577800422725 196.472713780944)" fill="#000000" stroke="#000000" stroke-width="1" stroke-linecap="square" stroke-linejoin="bevel" d="M11.0747 0.988666C9.88113 1.15765 7.4975 2.08668 6.3638 2.48329C4.29255 3.20788 4.68892 2.97643 2.47063 4.1303L0.385628 5.4503C-1.39922 5.0514 3.44862 2.23512 5.99563 1.4003C7.20259 1.0047 9.59712 0.197197 10.8556 0.00529939C11.0157 -0.0191067 11.7381 0.0293818 11.6049 0.394678C11.3633 0.774831 11.1866 0.972827 11.0747 0.988666Z"/><path id="shape24" transform="matrix(1.43440094407681 0.142219445710957 -0.134564542683795 1.64841796492297 146.256511502548 206.200966293024)" fill="#000000" stroke="#000000" stroke-width="1" stroke-linecap="square" stroke-linejoin="bevel" d="M2.08383 2.37923C1.59417 3.58353 0.764592 4.7314 0.0430263 3.97149C-0.265627 3.28789 1.12914 0.561775 2.85452 0C4.01107 0.955039 2.55716 2.18245 2.08383 2.37923Z"/><path id="shape012" transform="matrix(1.44068673200116 -0.0191945728818229 0.00594432105000948 1.65443029703752 180.420929603607 206.570790343223)" fill="#000000" stroke="#000000" stroke-width="1" stroke-linecap="square" stroke-linejoin="bevel" d="M2.1236 2.35625C1.63394 3.56055 0.790395 4.86791 0.0688278 4.108C-0.190232 3.81844 0.358744 3.25048 0.452235 2.83214C1.13667 2.03492 1.07114 1.35773 3.19564 0.0234151C4.89696 -0.262431 2.59693 2.15947 2.1236 2.35625Z"/><path id="shape7111" transform="matrix(3.25240311184545 0 0 3.2351769324614 31.4020849794686 125.170319560775)" fill="#43521e" stroke="#000000" stroke-width="0.72" stroke-linecap="square" stroke-linejoin="bevel" d="M18.3645 24.5366C16.0651 19.6587 13.5153 13.1505 11.4608 8.16756C10.7943 6.55088 10.0592 4.96839 9.25594 3.41485C9.21034 3.32666 7.7865 4.30586 7.45726 4.60473C5.17649 6.67505 2.92576 8.68033 1.08392 11.1675C0.297057 12.118 -0.430605 11.516 0.305156 10.5402C2.64837 7.73034 4.18158 4.38688 6.80703 1.80441C7.70376 0.922354 9.08071 -0.619217 10.4419 0.264389C11.8662 1.18895 12.8266 4.58723 13.4705 6.06014C15.6582 11.064 18.833 18.6182 20.9895 23.6366C21.5266 24.8864 18.9036 25.6802 18.3645 24.5366Z"/><path id="shape1011" transform="matrix(3.25240311184545 0 0 3.2351769324614 314.903310944243 125.94696700177)" fill="#43521e" stroke="#000000" stroke-width="0.6" stroke-linecap="square" stroke-linejoin="bevel" d="M0.000209755 19.7651C0.22233 14.9722 0.875079 10.2756 1.79275 5.57641C2.02678 4.37801 1.90142 1.27269 2.94346 0.284902C4.09694 -0.808529 5.88261 1.55841 6.45936 2.12206C8.69967 4.31144 10.4899 6.87611 12.9855 8.77763C13.913 9.55273 13.3564 10.3539 12.3843 9.57674C9.99964 7.60237 7.47648 5.84881 5.2211 3.72207C5.11812 3.62497 4.42422 2.77882 4.39558 2.94493C4.19526 4.10682 4.0261 4.83053 3.79839 5.98806C2.89238 10.5937 2.29111 15.1982 2.0458 19.8926C2.00746 20.6263 -0.0237183 20.2815 0.000209755 19.7651Z"/><path id="shape8111" transform="matrix(3.25240311184545 0 0 3.2351769324614 105.314490034288 67.6328172698873)" fill="#43521e" stroke="#000000" stroke-width="0.72" stroke-linecap="square" stroke-linejoin="bevel" d="M0.000416504 40.3029C0.134444 36.9941 0.804887 32.5706 1.07908 29.1207C1.53598 23.372 2.27638 17.7155 3.34374 12.0481C4.05877 8.25154 5.20806 4.63751 5.83641 0.807915C6.06341 -0.312985 7.01683 -0.274195 6.82384 0.965932C5.08188 10.3084 3.86122 19.7961 3.09913 29.2573C2.82015 32.7207 2.79809 36.6463 2.14542 40.0629C1.99906 40.829 -0.0333685 40.5525 0.000416504 40.3029Z"/><path id="shape3111" transform="matrix(1.4394513446474 0.0564842108592021 -0.0599458998505738 1.65357724093637 104.670754802748 147.128053031139)" fill="#000000" stroke="#000000" stroke-width="1" stroke-linecap="square" stroke-linejoin="bevel" d="M0.455927 30.6342C0.718248 30.5827 1.00258 30.4517 1.25157 30.3723C1.94426 30.1515 2.6969 29.9813 3.35305 29.6755C6.28091 28.3107 8.14907 25.5004 9.9867 22.7542C13.8619 16.9632 17.5199 9.82633 22.4601 4.89272C26.3074 1.04793 26.5156 1.14498 29.2162 0.40169C33.3751 -0.742979 38.8633 0.692615 42.5774 3.01625C45.5298 4.86332 47.9546 7.52663 50.3435 10.016C51.8763 11.6134 53.2092 12.8041 54.7573 14.2731C55.5525 14.7766 56.5772 15.4772 57.3673 15.8031C57.6391 15.9153 60.5628 17.0092 59.5873 16.9131C59.9539 17.1782 58.4739 19.5329 57.7873 19.2531C54.7326 18.0084 51.8148 15.3884 49.1773 12.9231C46.3738 9.49884 43.0367 6.32513 39.1873 4.22314C36.5121 2.76232 33.6931 2.16579 30.5173 3.02314C27.1556 3.9307 23.7972 6.8472 21.8237 9.55962C17.8985 14.488 14.5186 20.3821 11.6413 25.4695C9.41951 28.0216 7.95944 30.705 4.23792 31.5153C3.35573 31.8875 1.3409 32.1369 0.278009 31.8401C-0.367812 31.6597 0.291755 30.6665 0.455927 30.6342Z"/><path id="shape1211" transform="matrix(3.25240311184545 0 0 3.2351769324614 276.136974020532 19.2548345139161)" fill="#43521e" stroke="#000000" stroke-width="0.6" stroke-linecap="square" stroke-linejoin="bevel" d="M3.48517 49.2152C2.79678 45.4299 2.79376 44.1041 2.41887 40.2602C1.68266 32.7112 1.17312 25.0143 0.946282 17.4235C0.778839 11.8201 1.03785 6.62598 0.0261971 1.14839C-0.165413 -0.0418712 0.748555 -0.585459 0.999005 0.903468C3.18401 13.8058 3.3315 26.8811 4.45596 39.9508C4.74075 43.2608 5.27654 46.5373 5.60707 49.8418C5.64125 50.1835 3.59837 49.8377 3.48517 49.2152Z"/><path id="shape2111" transform="matrix(4.04082694698635 0.158562442675014 -0.169699522814214 4.68107525990639 207.28333652422 145.308095896195)" fill="#000000" stroke="#000000" stroke-width="0.48" stroke-linecap="round" stroke-linejoin="round" d="M0.00127045 10.9202C-0.057615 10.8374 1.9461 9.27527 2.76766 8.11704C6.01169 3.54358 9.95589 0.109999 12.642 0.0048657C16.5434 -0.14784 19.1878 3.32769 20.5074 5.66389C20.8721 6.30937 22.6726 7.66141 23.0295 8.03771C24.071 9.13566 24.5451 9.56194 25.5089 10.0512C25.5864 10.0906 25.4401 10.6908 25.2524 10.6659C24.466 10.5613 23.7495 9.90261 22.7517 8.92789C22.1309 8.32153 21.0855 7.47966 20.0586 6.32093C19.0317 5.16219 18.5411 3.42394 17.1304 2.23032C15.8855 1.17702 14.8106 0.541546 13.219 0.555932C10.6748 0.578928 10.2525 1.39614 9.22217 2.08196C7.04475 3.53133 3.0412 8.67368 2.23926 9.40346C1.82579 9.77973 0.0592431 11.0017 0.00127045 10.9202Z"/><path id="shape911" transform="matrix(3.25240311184545 0 0 3.2351769324614 300.224677712116 91.94908949232)" fill="#43521e" stroke="#000000" stroke-width="0.6" stroke-linecap="square" stroke-linejoin="bevel" d="M2.50771 36.1033C1.88141 32.9222 1.73314 29.9717 1.31881 26.9089C0.51121 20.939 -0.0747169 14.8442 0.00773709 8.80964C0.0438228 6.16865 0.361392 3.54838 0.350582 0.901301C0.370365 -0.253716 1.35172 -0.343646 1.35056 0.893764C1.06542 9.42257 2.20257 18.2355 3.33532 26.64C3.82424 30.2675 3.52452 30.3352 4.15173 34.2896C4.32872 35.4055 2.7022 37.0911 2.50771 36.1033Z"/><path id="shape41111" transform="matrix(1.4394513446474 0.0564842108592021 -0.0599458998505738 1.65357724093637 254.440569722679 195.302399103884)" fill="#000000" stroke="#000000" stroke-width="1" stroke-linecap="square" stroke-linejoin="bevel" d="M0.370006 15.735C1.1094 15.6239 7.63271 14.9139 13.2285 14.305C17.5615 13.8334 21.3384 13.4224 21.443 13.3969C24.1665 12.4525 26.2452 12.0758 29.0162 11.0423C30.9984 10.6751 35.8441 8.0999 37.3371 6.88016C40.19 4.54959 40.3405 4.02059 42.5347 0.528859C43.2158 -0.413444 44.0016 -0.00619365 43.3943 1.03984C41.7714 3.63257 41.0755 5.68296 38.3871 8.38016C36.912 9.40178 34.4825 10.7176 32.5988 11.4821C30.3461 12.9895 26.3862 13.7781 23.8825 14.3907C22.3291 14.7708 20.8374 15.2686 19.2676 15.6022C18.7598 15.7101 0.649514 17.1655 0.208639 16.7698C-0.0225244 16.5624 -0.0701087 16.263 0.108778 16.011C0.179701 15.9111 0.266777 15.8191 0.370006 15.735Z"/>
</svg>
